<?xml version="1.0" encoding="UTF-8" standalone="no"?>
<!-- Created with Inkscape (http://www.inkscape.org/) -->

<svg
   xmlns:dc="http://purl.org/dc/elements/1.1/"
   xmlns:cc="http://creativecommons.org/ns#"
   xmlns:rdf="http://www.w3.org/1999/02/22-rdf-syntax-ns#"
   xmlns:svg="http://www.w3.org/2000/svg"
   xmlns="http://www.w3.org/2000/svg"
   xmlns:sodipodi="http://sodipodi.sourceforge.net/DTD/sodipodi-0.dtd"
   xmlns:inkscape="http://www.inkscape.org/namespaces/inkscape"
   id="svg2"
   sodipodi:docname="tsunami.svg"
   viewBox="0 0 546.11141 263.12429"
   sodipodi:version="0.32"
   version="1.0"
   inkscape:output_extension="org.inkscape.output.svg.inkscape"
   inkscape:version="0.92.4 (unknown)"
   width="546.11139"
   height="263.1243">
  <defs
     id="defs3517" />
  <sodipodi:namedview
     id="base"
     bordercolor="#666666"
     inkscape:pageshadow="2"
     inkscape:window-width="1855"
     pagecolor="#ffffff"
     inkscape:zoom="0.73102716"
     inkscape:window-x="65"
     showgrid="false"
     borderopacity="1.0"
     inkscape:current-layer="svg2"
     inkscape:cx="108.23539"
     inkscape:cy="222.511"
     inkscape:window-y="24"
     inkscape:window-height="1056"
     inkscape:pageopacity="0.0"
     inkscape:window-maximized="1"
     fit-margin-top="0"
     fit-margin-left="0"
     fit-margin-right="0"
     fit-margin-bottom="0" />
  <metadata
     id="metadata3515">
    <rdf:RDF>
      <cc:Work>
        <dc:format>image/svg+xml</dc:format>
        <dc:type
           rdf:resource="http://purl.org/dc/dcmitype/StillImage" />
        <cc:license
           rdf:resource="http://creativecommons.org/publicdomain/zero/1.0/" />
        <dc:publisher>
          <cc:Agent
             rdf:about="http://openclipart.org/">
            <dc:title>Openclipart</dc:title>
          </cc:Agent>
        </dc:publisher>
        <dc:title />
        <dc:date>2008-01-03T19:26:09</dc:date>
        <dc:description />
        <dc:source>https://openclipart.org/detail/10527/waves-sign-by-yves_guillou-10527</dc:source>
        <dc:creator>
          <cc:Agent>
            <dc:title>yves_guillou</dc:title>
          </cc:Agent>
        </dc:creator>
        <dc:subject>
          <rdf:Bag>
            <rdf:li>danger</rdf:li>
            <rdf:li>sign</rdf:li>
          </rdf:Bag>
        </dc:subject>
      </cc:Work>
      <cc:License
         rdf:about="http://creativecommons.org/publicdomain/zero/1.0/">
        <cc:permits
           rdf:resource="http://creativecommons.org/ns#Reproduction" />
        <cc:permits
           rdf:resource="http://creativecommons.org/ns#Distribution" />
        <cc:permits
           rdf:resource="http://creativecommons.org/ns#DerivativeWorks" />
      </cc:License>
    </rdf:RDF>
  </metadata>
  <path
     id="path1452"
     style="font-style:normal;font-weight:normal;font-size:60.63037872px;line-height:125%;font-family:sans-serif;letter-spacing:0px;word-spacing:0px;fill:#ffffff;fill-opacity:1;stroke:none;stroke-width:1px;stroke-linecap:butt;stroke-linejoin:miter;stroke-opacity:1"
     d="m 414.02217,253.73717 c 0,-1.03 -0.72,-1.14999 -1.53999,-0.25 -0.98,1.08001 -0.53,1.97 0.67999,1.33 0.47001,-0.24999 0.86,-0.74 0.86,-1.08 z M 0.32219207,262.84718 c -0.82000394,-0.55001 -0.24000353,-1.84001 3.67999893,-8.18001 3.0699957,-4.97 4.1999936,-6.80999 9.150001,-14.9 1.859993,-3.04 4.849994,-7.92 6.639997,-10.85 1.790003,-2.92 3.73,-6.11 4.299996,-7.09 0.570006,-0.97 2.700006,-4.46 4.719999,-7.74999 6.030003,-9.79001 10.000007,-16.28001 13.570008,-22.14001 5.299999,-8.71999 5.379994,-8.82999 7.090002,-9.27 0.859991,-0.22 14.709991,-0.53 30.789994,-0.66999 16.080003,-0.15001 34.810002,-0.38001 41.620002,-0.52001 l 12.39,-0.25 4.66,-4.36 c 2.57,-2.39999 7.25,-6.96 10.41,-10.14 l 5.73999,-5.78 0.55001,-10.09 c 0.29,-5.55 0.55,-11.88 0.55999,-14.06999 l 0.03,-3.99001 -3.59,-4.75 c -1.97,-2.61 -5.71,-7.39 -8.32001,-10.62999 l -4.73999,-5.88001 -23.45,0.14 c -25.030005,0.14001 -25.510002,0.11 -25.810002,-1.98 -0.100003,-0.67 0.310004,-1.21 1.460001,-1.92 1.889996,-1.17 3.340002,-1.55 23.480001,-6.21 21.91,-5.060001 22.38,-5.18 26.67,-6.699999 9.31,-3.279998 17.53,-8.019995 21.69,-12.499998 2.78,-2.990007 5.89999,-7.920002 5.89999,-9.33 0,-0.970004 -1.09999,-2.339999 -9.87,-12.31 -5.95999,-6.77 -6.95999,-8.360007 -6.95999,-11.029999 0,-3.090001 2.52,-2.459999 7.55999,1.899994 1.81,1.560002 6.68001,5.580003 10.82,8.940007 4.14001,3.349996 9.08,7.379995 10.97001,8.959994 4.07999,3.399998 4.33999,2.140004 -2.49,11.919997 -2.56,3.660003 -6.17,8.880008 -8.02001,11.61 l -3.38,4.970008 0.74,1.450002 c 0.95,1.889994 4.54,7.909994 7.72001,12.979994 1.37999,2.19001 3.13,5.08 3.89,6.42 2.06,3.65 11.63999,15.28 28.22999,34.3 3.42,3.91 9.95,11.53 14.50001,16.93 4.55999,5.4 8.53999,9.9 8.84999,10.01 0.31,0.1 12.49001,0.09 27.07,-0.03 22.32,-0.17 26.58,-0.11 26.91,0.41 0.21,0.34 0.39,10.61 0.39,22.82001 0.01,21.50999 0.15,25.20999 0.93,24.71999 1.08,-0.67 6.68001,-13.57999 10.07,-23.23 6.80001,-19.37 11.63,-44.62 10.99,-57.36 -1.09,-21.45 -7.38,-36.00999 -19.77,-45.8 -6.41,-5.069997 -11.22,-7.649995 -18.6,-10.010001 -3.52,-1.129996 -4.48,-1.229999 -14.62,-1.510001 -11.77,-0.319995 -13.42,-0.659997 -13.98,-2.879996 -0.75,-3.000006 4.91,-8.040002 10.88001,-9.710006 3.92999,-1.099991 9.40999,-1.729993 13.48,-1.559992 2.64,0.110001 3.79999,0 3.79999,-0.35 0,-0.810001 -6.87,-6.380007 -12.63,-10.240005 -8.46,-5.679996 -18.11,-10.449999 -26.13,-12.929993 -7.46999,-2.310004 -17.79,-2.900003 -22.80999,-1.320004 -1.59,0.499994 -4.22001,1.030003 -5.85,1.169999 -8.47001,0.729995 -6.4,-5.54 4.21,-12.779999 3.87,-2.629999 8.83999,-5.240002 9.98,-5.240002 0.31999,0 0.51,-0.299998 0.40999,-0.599997 -0.3,-0.900006 -8.22,-1.300007 -14.50999,-0.7 -8.91001,0.7 -17.62,3.200002 -25.5,7.170001 -4.05,2.04 -6.55,2.719994 -7.72001,2.089992 -2.04999,-1.099992 -0.33,-4.919997 4.38001,-9.759997 4.01999,-4.099997 8.07999,-7 15.55,-11.099998 6.51,-3.600003 10.37999,-5.199998 17.04,-7.200006 12.05,-3.699995 20.7,-4.8999996 35.23,-4.8999996 12.99,0.099982 24.35999,1.8000016 36.43999,5.4000046 3.11,0.999998 5.76,1.599996 5.89,1.4 0.40001,-0.7 -1.86,-3.200002 -4.45,-5.099996 -2.58,-1.8000013 -2.64,-2.0000071 -1.58999,-4.8000072 0.48999,-1.1999941 1.9,-1.5999956 6.57999,-1.5999956 4.69,0 12.9,1.2999971 20.27,3.0999986 10.05,2.6000042 17.04,5.1999982 26.33,9.9999962 11.01,5.800005 18.78,11.500008 29.72,21.900006 3.84,3.660002 7.21,6.65 7.5,6.65 0.36,0 0.43,-0.340002 0.21,-0.999999 -0.19,-0.550006 -0.36,-1.69 -0.39,-2.550003 -0.05,-1.459999 0.03,-1.539996 1.32,-1.490004 3.29,0.140006 14.5,7.100003 22.6,14.040003 4.5,3.85 9.89,9.430004 14.25,14.76 2.5,3.049997 8.51,12.070001 8.51,12.779999 0,0.299999 0.31999,0.82 0.72,1.150003 0.39,0.330004 1.35999,1.900005 2.14999,3.490002 0.78001,1.589997 2.29,4.389997 3.34001,6.209995 8.46,14.670002 16.93,37.140002 23.02,61.030002 0.56999,2.21 1.11,2.12 1.53,-0.23 0.55,-3.13 2.5,-8.42 4.05,-11 3.28,-5.45 8.96,-10.63999 11.26,-10.3 1,0.13001 1.09999,0.5 1.6,3.94 0.3,2.09 1.1,5.18 1.8,6.87 2.9,7.28 12,12.99 20.8,13.03 1.3,0 2.2,0.29 2.69999,0.81 0.80001,0.76 2.40001,3.46 14.40001,23.78001 2.5,4.14 6.9,11.61 9.9,16.60999 2.9,4.99 6.8,11.57001 8.6,14.61 2.9,4.91 5.4,9.23 16.19999,27.47001 9.1,15.48999 10.10001,17.33999 9.4,17.74999 -0.3,0.22001 -6.79999,0.42 -14.29999,0.44 -7.6,0.03 -17.80001,0.11 -22.80001,0.18 -4.99999,0.06 -29.9,0.25 -55.38999,0.4 -25.46,0.16 -49.38,0.38 -53.15,0.49 -3.78,0.12 -31.59,0.32 -61.8,0.45 -30.2,0.12001 -58.81,0.32 -63.56,0.44 -9.59999,0.24 -39.33,0.55 -86.15,0.89 -35.88999,0.26 -68.89999,0.57 -93.459989,0.88 -9.500001,0.12 -29.240005,0.32 -43.850003,0.44 -14.620002,0.13 -31.959999,0.34 -38.54,0.47 -7.5599947,0.15001 -12.19999802,0.0801 -12.60999512,-0.19999 z M 201.07218,180.50717 c 5.92001,-0.12 9.19001,-0.34 9.19001,-0.64 0,-0.25 -0.75001,-1.3 -1.66001,-2.32 -0.90999,-1.02 -3.06,-3.53 -4.75999,-5.57 -1.71,-2.04 -5.89001,-6.92 -9.30001,-10.85 -3.40999,-3.92 -8.91999,-10.31 -12.23999,-14.18999 -6.88,-8.03001 -7.77001,-8.93 -8.34,-8.35001 -0.22,0.23 -0.63001,5.5 -0.91001,11.71 -0.28999,6.21 -0.67999,11.69001 -0.88,12.18 -0.19999,0.49 -3.66999,4.66 -7.71,9.27 -4.03999,4.62 -7.34999,8.56 -7.34999,8.77 0,0.38 25.38999,0.37001 43.95999,-0.0103 z m -45.72999,-7.18 c 0,-0.48 -0.2,-0.88 -0.45001,-0.88 -0.23999,0 -0.44,0.4 -0.44,0.88 0,0.49 0.20001,0.89 0.44,0.89 0.25001,0 0.45001,-0.4 0.45001,-0.89 z m -16.2,-82.779999 c -4.01,-1.020005 -7.3,-4.370001 -8.22,-8.34 -0.64,-2.790002 0.34999,-6.510004 2.35,-8.790004 3.45,-3.919998 9.50999,-4.959999 13.97999,-2.39 2.66001,1.52 4.31,3.739999 4.93001,6.630004 1.34,6.3 -3.08,12.360001 -9.51,13.01 -1.19,0.129997 -2.78001,0.06998 -3.53,-0.12 z m 94.77999,-15.720005 c -1.56,-0.7 -1.95,-1.449992 -1.95,-3.649994 0,-4.67 4.59,-7.700001 10.77,-7.12 2.79001,0.259995 9.76,2.339999 12.34,3.670001 l 1.43001,0.739993 -0.96001,0.770008 c -1.32,1.069997 -8.17,3.769994 -12.36,4.869995 -4.83,1.260004 -7.61,1.480007 -9.27,0.719997 z m -46.10999,-27.29999 c -1.55,-0.620004 -2.49,-2.420006 -2.17,-4.130003 0.48,-2.580007 2.87999,-4.160007 8.1,-5.330006 3.55,-0.799993 8.11,-0.959995 8.11,-0.279992 0,0.719997 -3.02001,3.839992 -5.93,6.149996 -4.09001,3.240005 -6.41,4.26 -8.11,3.590005 z M 253.89218,7.4571742 c -0.96999,-0.4000015 -1.82,-0.7 -1.89,-0.7 -0.07,0 -0.32,-0.5000044 -0.55,-1.1000015 -0.56,-1.500003 0.4,-3.7999986 1.93,-4.90000006 2,-1.30000736 5.6,-0.90000588 9.61,0.99999856 3.99,1.8000015 5.06,2.8 4.65,4.0999971 -0.33,0.9999985 -2.73,1.6000059 -8.21,1.9999971 -2.79,0.2000059 -4.22,0.099982 -5.54,-0.3999912 z m 17.42,-0.4000015 c -0.96,-2.2000029 1.57,-3.5 2.91,-1.5000029 0.88,1.2000044 0.2,2.6000044 -1.31,2.6000044 -0.74,0 -1.26,-0.4000015 -1.6,-1.1000015 z"
     inkscape:connector-curvature="0" />
</svg>
